<?xml version="1.0" encoding="utf-8"?>
<!-- Generator: Adobe Illustrator 17.0.0, SVG Export Plug-In . SVG Version: 6.00 Build 0)  -->
<!DOCTYPE svg PUBLIC "-//W3C//DTD SVG 1.1//EN" "http://www.w3.org/Graphics/SVG/1.1/DTD/svg11.dtd">
<svg version="1.1" id="Réteg_3" xmlns="http://www.w3.org/2000/svg" xmlns:xlink="http://www.w3.org/1999/xlink" x="0px" y="0px"
	 width="456px" height="456px" viewBox="0 0 456 456" enable-background="new 0 0 456 456" xml:space="preserve">
<path fill="#FFFFFF" stroke="#000000" stroke-width="5" stroke-miterlimit="10" d="M268.744,322.466
	c0,7.199-5.836,13.034-13.034,13.034h-72.839c-7.199,0-13.034-5.836-13.034-13.034l-19.935-151.045
	c0-7.199,5.836-13.034,13.034-13.034h114.242c7.199,0,13.034,5.836,13.034,13.034L268.744,322.466z"/>
<path fill="#FFFFFF" stroke="#000000" stroke-width="5" stroke-miterlimit="10" d="M280.97,272.301c0,3.387-2.746,6.134-6.134,6.134
	H165.278c-3.387,0-6.134-2.746-6.134-6.134l-8.434-50.716c0-3.387,2.746-6.134,6.134-6.134h124.893c3.387,0,6.134,2.746,6.134,6.134
	L280.97,272.301z"/>
<g>
	<polygon points="270.677,215.202 277.945,174.488 274.479,215.701 	"/>
</g>
<g>
	<polygon points="267.195,278.657 258.01,330.9 264.16,278.213 	"/>
</g>
<g>
	<path d="M168.048,222.791c0,0,6.358-0.385,15.893-0.657c2.384-0.071,4.967-0.149,7.699-0.198c2.732-0.056,5.612-0.127,8.593-0.155
		c2.98-0.03,6.059-0.094,9.188-0.099c3.129-0.013,6.308-0.027,9.487-0.04c3.179,0.013,6.358,0.026,9.487,0.039
		c3.129,0.001,6.208,0.068,9.188,0.098c5.96,0.081,11.523,0.204,16.291,0.353c9.537,0.274,15.893,0.66,15.893,0.66
		s-6.358,0.387-15.893,0.66c-4.768,0.149-10.331,0.272-16.291,0.353c-2.98,0.029-6.059,0.097-9.188,0.098
		c-3.129,0.013-6.308,0.026-9.487,0.039c-3.179-0.013-6.358-0.027-9.487-0.04c-3.129-0.005-6.208-0.069-9.188-0.099
		c-2.98-0.028-5.861-0.099-8.593-0.155c-2.732-0.049-5.314-0.126-7.699-0.198C174.405,223.176,168.048,222.791,168.048,222.791z"/>
</g>
<path fill="#FFFFFF" stroke="#000000" stroke-width="5" stroke-miterlimit="10" d="M291.235,157.875
	c-1.022-3.45-2.641-6.134-5.899-6.134H275.07v-2.555c0-3.387-2.746-9.967-6.134-9.967H168.878c-3.387,0-6.134,6.58-6.134,9.967
	v2.555h-8.477c-3.258,0-4.904,2.723-5.899,6.134l-6.197,17.123c0.703,3.706,3.472,3.322,6.73,3.322H291.47
	c3.258,0,5.899-0.446,5.899-3.834L291.235,157.875z"/>
<rect x="159.869" y="149.953" width="122.421" height="3.834"/>
<g>
	<path d="M203.638,259.553c0.214-0.639,0.451-1.421,0.779-2.307c0.313-0.89,0.697-1.895,1.196-2.971
		c0.508-1.072,1.096-2.243,1.934-3.379c0.386-0.588,0.877-1.133,1.362-1.708c0.255-0.276,0.538-0.534,0.817-0.8
		c0.271-0.277,0.576-0.521,0.894-0.754c1.234-1.004,2.696-1.739,4.26-2.271c0.403-0.118,0.808-0.237,1.214-0.356
		c0.411-0.122,0.744-0.145,1.122-0.219l1.166-0.193l1.05-0.159c1.388-0.232,1.993-0.557,3.226-1.099
		c1.231-0.534,3.15-1.195,4.047-2.097c0.892-0.894,1.673-1.894,2.196-3.001c0.294-0.534,0.47-1.113,0.712-1.647
		c0.172-0.56,0.371-1.099,0.51-1.632c0.126-0.541,0.246-1.059,0.36-1.552c0.09-0.503,0.175-0.98,0.255-1.428
		c0.073-0.496,0.133-0.956,0.188-1.382c-0.207-0.186-0.421-0.366-0.643-0.539c-6.743-5.24-17.817-2.27-24.735,6.633
		c-6.194,7.972-6.95,17.993-2.201,23.765C203.43,260.194,203.527,259.894,203.638,259.553z"/>
	<path d="M233.256,232.155c0.01,0.192,0.019,0.389,0.023,0.594c0.001,0.471,0.002,0.971,0.003,1.499
		c-0.022,0.531-0.09,1.091-0.138,1.679c-0.067,0.587-0.199,1.201-0.307,1.841c-0.076,0.318-0.179,0.638-0.274,0.965
		c-0.1,0.327-0.184,0.663-0.335,0.989c-0.483,1.338-1.292,2.699-2.375,3.905c-1.076,1.23-2.507,2.164-3.99,2.855
		c-0.745,0.365-1.514,0.616-2.292,0.858c-0.388,0.121-0.778,0.189-1.168,0.285c-0.39,0.09-0.782,0.186-1.171,0.232l-1.169,0.165
		l-1.045,0.164c-0.354,0.067-0.765,0.1-1.072,0.189l-0.936,0.251c-0.313,0.061-0.624,0.206-0.935,0.325
		c-0.307,0.13-0.635,0.211-0.923,0.375c-0.294,0.153-0.587,0.305-0.876,0.455c-0.293,0.148-0.551,0.354-0.827,0.524
		c-0.276,0.173-0.544,0.355-0.784,0.572c-0.245,0.21-0.503,0.403-0.744,0.612c-0.456,0.451-0.929,0.873-1.321,1.362
		c-0.824,0.935-1.512,1.934-2.134,2.874c-0.597,0.958-1.139,1.857-1.602,2.673c-0.47,0.817-0.879,1.53-1.216,2.116
		c-0.212,0.374-0.405,0.685-0.57,0.947c0.504,0.581,1.066,1.117,1.686,1.599c6.743,5.24,17.817,2.27,24.735-6.633
		C237.881,248.218,238.492,237.829,233.256,232.155z"/>
</g>
</svg>
