<?xml version="1.0" encoding="utf-8"?>
<!-- Generator: Adobe Illustrator 17.0.0, SVG Export Plug-In . SVG Version: 6.00 Build 0)  -->
<!DOCTYPE svg PUBLIC "-//W3C//DTD SVG 1.1//EN" "http://www.w3.org/Graphics/SVG/1.1/DTD/svg11.dtd">
<svg version="1.1" id="Réteg_1" xmlns="http://www.w3.org/2000/svg" xmlns:xlink="http://www.w3.org/1999/xlink" x="0px" y="0px"
	 width="456px" height="456px" viewBox="0 0 456 456" enable-background="new 0 0 456 456" xml:space="preserve">
<rect x="0" width="456" height="456"/>
<g>
	<path fill="#FFFFFF" d="M242.386,238.63c-0.326,0-1.059,0.407-1.71,1.303c-0.733,0.896-0.163,1.629-0.815,2.443
		c-3.339,4.073-8.47,6.679-13.194,6.679c-4.235,0-7.167-2.688-7.167-4.968c0-0.326,0.081-0.815,0.326-0.815
		c4.968,0,11.891-4.968,11.891-10.425c0-1.547-1.466-2.606-3.095-2.606c-5.701,0-19.302,12.298-19.383,12.298
		c-0.163,0-0.163-0.326-0.163-0.407c2.117-3.584,8.307-13.357,12.949-20.443c10.344,0,18.569-3.746,25.9-9.447
		c6.434-4.968,10.75-13.194,10.75-18.081c0-3.258-2.525-4.561-5.782-4.561c-6.027,0-14.09,4.968-20.768,12.624
		c-7.412,8.47-11.239,14.66-13.52,18.325c-6.353-0.408-8.877-1.466-11.239-2.525c-0.978-0.407-0.326-1.955-1.303-2.524
		c-0.815-0.489-1.71-0.815-2.443-0.815c-0.652,0-1.14,0.326-1.14,1.222c0,1.059,3.828,3.584,4.887,3.584
		c2.036,0.814,4.398,1.71,10.588,2.117c-3.584,5.782-7.575,11.402-11.158,17.755c-0.341,0.604-0.729,1.268-1.134,1.953
		c-0.001,0.001-0.001,0.001-0.002,0.002c-5.538,3.991-15.8,8.552-21.746,8.552c-2.117,0-3.421-1.059-3.421-3.176
		c0-6.108,10.506-14.823,14.742-14.823c1.71,0,2.362,0.57,2.362,1.385c0,1.629-2.932,3.828-2.932,4.235
		c0,0.082,0.081,0.326,0.651,0.326c3.095,0,7.412-4.968,7.412-7.249c0-0.326-0.244-0.489-0.733-0.489
		c-1.385,0-2.688,0.408-3.258,1.873c-0.489-0.733-2.117-1.629-4.154-1.629c-7.61,0-16.667,7.11-17.983,14.107
		c-3.775,2.52-9.714,5.277-12.474,5.277c-0.733,0-1.71-0.163-1.71-1.222c0-2.117,2.281-6.189,3.095-6.189
		c1.548,0,2.688-3.258,2.688-4.642c0-0.815-1.222-3.909-2.443-3.909c-0.57,0-1.059,0.733-1.629,1.629
		c-0.652,1.059-1.385,2.28-4.072,5.212c-3.665,3.991-11.158,9.203-14.09,9.203c-0.978,0-1.547-0.652-1.547-1.955
		c0-1.466,3.665-6.76,8.714-10.67c4.561-3.583,7.737-5.212,10.588-5.212c5.701,0,4.724,4.561,6.597,4.561
		c0.815,0,1.385-0.978,1.385-1.466c0-2.199-3.828-5.05-8.714-5.05c-3.991,0-8.877,1.629-13.357,4.805
		c-3.18,2.219-6.309,5.896-7.74,9.242c-3.782,2.819-9.795,5.662-13.515,5.662c-1.059,0-1.547-0.896-1.547-1.629
		c0-2.199,2.199-6.108,4.235-9.692c2.118-3.746,9.448-15.311,16.615-27.121c1.873-3.095,4.48-7.656,5.05-8.633
		c0.163-0.244,0.407-0.896,0.407-1.466c0-0.896-1.222-3.421-2.28-3.421c-0.977,0-1.792,0.571-2.362,1.303
		c-1.14,1.547-2.28,3.176-2.28,4.887c0,0.733,0.081,1.059,0.081,1.303c0,1.14-0.407,1.955-1.303,3.502
		c-0.733,1.303-14.66,23.782-17.185,27.854c-2.199,3.502-3.91,8.063-3.91,11.077c0,1.955,0.896,3.502,3.421,3.502
		c4.557,0,9.753-2.401,13.96-5.315c-0.128,0.546-0.198,1.072-0.198,1.569c0,2.117,1.466,3.91,3.909,3.91
		c4.968,0,12.298-5.864,15.719-9.366l0.407,0.244c-1.629,3.095-2.199,4.561-2.199,6.027c0,1.71,1.792,2.932,3.665,2.932
		c4.099,0,9.657-2.511,13.854-5.198c-0.001,0.049-0.012,0.1-0.012,0.149c0,3.502,3.013,5.619,6.515,5.619
		c6.085,0,15.488-4.433,21.322-8.061c-1.259,2.134-2.349,4.061-2.349,4.641c0,1.873,0.896,2.769,1.629,2.769
		c0.244,0,0.733-0.163,0.978-0.57c3.339-5.701,16.044-16.615,20.605-16.615c0.652,0,1.14,0.408,1.14,1.385
		c0,3.014-4.968,5.946-7.575,5.946c-0.896,0-1.71-0.571-2.687-0.571c-0.652,0-1.303,0.896-1.303,1.71
		c0,2.688,3.095,8.714,10.262,8.714c5.946,0,11.728-3.502,15.149-7.33c1.629-1.873,2.85-3.583,2.85-4.561
		C242.956,238.793,242.549,238.63,242.386,238.63z M234.974,203.935c6.271-7.33,13.194-11.239,17.348-11.239
		c1.955,0,3.339,0.978,3.339,3.177c0,3.991-3.503,11.239-8.959,15.556c-6.759,5.375-15.8,9.122-24.107,9.122
		C224.63,217.373,228.459,211.509,234.974,203.935z"/>
	<path fill="#FFFFFF" d="M400.287,233.825c0-2.362-1.059-3.665-3.095-3.665c-4.887,0-11.892,8.552-15.963,12.298
		c-0.082,0.081-0.082-0.163-0.082-0.408l5.131-7.656c0.163-0.244,0.408-0.896,0.408-1.466c0-0.978-1.059-3.013-2.443-3.013
		c-1.14,0-1.547,0.651-2.117,1.303c-1.303,1.547-2.525,3.176-2.525,5.294c0,0.407,0.082,0.896,0.082,1.222
		c0,1.059-0.326,1.547-0.978,2.524c-0.405,0.607-1.534,2.361-2.567,4.102c-3.769,2.538-9.792,5.345-12.578,5.345
		c-0.732,0-1.71-0.163-1.71-1.222c0-2.117,2.28-6.189,3.095-6.189c1.547,0,2.687-3.258,2.687-4.642c0-0.815-1.222-3.909-2.443-3.909
		c-0.57,0-1.059,0.733-1.629,1.629c-0.652,1.059-1.384,2.28-4.073,5.212c-3.665,3.991-11.157,9.203-14.09,9.203
		c-0.976,0-1.547-0.652-1.547-1.955c0-1.466,3.665-6.76,8.715-10.67c4.561-3.583,7.737-5.212,10.587-5.212
		c5.702,0,4.724,4.561,6.598,4.561c0.814,0,1.384-0.978,1.384-1.466c0-2.199-3.827-5.05-8.714-5.05
		c-3.991,0-8.877,1.629-13.357,4.805c-3.206,2.238-6.364,5.959-7.778,9.327c-1.432,1.063-3.452,2.369-5.902,3.541
		c-2.199,1.059-4.235,1.385-5.864,1.385s-2.281-1.14-2.281-2.525c0-2.769,0.978-5.864,3.828-10.914
		c5.049-8.959,9.529-15.8,12.38-20.524c0.059,0.002,0.814-1.547,0.814-1.547c0.256-0.383,0.494-0.738,0.728-1.086
		c5.75,1.104,11.382,3.113,16.657,5.57c0.588,0.274,0.431-0.558,0.343-0.838c-0.181-0.572-0.682-1.241-1.237-1.5
		c-4.618-2.151-9.495-3.955-14.485-5.124c1.362-2.018,2.499-3.738,4.021-6.387c0.163-0.244,0.408-0.896,0.408-1.466
		c0-0.244,0-0.489-0.163-0.733c-0.651-1.303-1.222-2.28-2.117-2.28c-1.71,0-4.479,4.479-4.479,6.108
		c0,0.652,0.082,0.977,0.082,1.222c0,0.923-0.154,1.766-0.72,2.929c-4.905-0.885-9.887-1.118-14.811-0.419
		c3.713-3.924,6.671-9.374,6.671-13.197c0-5.293-4.173-6.311-9.06-6.311c-9.263,0-31.963,8.347-31.963,19.341
		c0,6.413,12.215,10.994,16.694,20.664c0.309,0.7,0.576,1.465,0.611,2.239c-0.025,0-0.051,0,0,0c0.712,2.24,0.814,4.377,0.814,6.922
		c0,12.723-9.467,24.226-18.73,31.861c-9.466,7.838-22.903,12.622-33.694,12.622c-7.94,0-12.927-3.054-12.927-11.197
		c0-11.909,10.789-25.346,28.501-33.286c7.79-3.432,15.284-5.308,23.057-6.213c-0.379,3.98-2.037,6.823-3.55,10.792
		c-1.832,4.804-3.664,9.608-5.496,14.412c-0.58,1.522,4.605,3.761,5.142,2.355c1.899-4.979,3.797-9.957,5.696-14.936
		c1.735-4.549,3.545-9.107,3.565-14.048c0.004-0.849-1.707-1.2-3.245-1.063c0.002-0.006,0.002-0.012,0.004-0.017
		c-8.451,0.782-16.776,2.739-26.089,6.886c-18.73,8.347-30.945,22.497-30.945,35.22c0,10.79,7.432,15.879,18.221,15.879
		c11.198,0,25.856-4.784,36.34-13.233c10.689-8.652,20.766-21.885,20.766-36.34c0-2.239-0.102-3.97-0.611-6.31
		c-0.107-0.611-0.244-1.3-0.402-1.987c-0.006-0.048,0,0-0.005-0.048c-0.109-0.012-0.046-0.005,0,0
		c-3.054-11.706-15.88-15.677-15.88-22.293c0-8.754,18.832-15.879,24.431-15.879c5.395,0,6.209,1.323,6.209,3.767
		c0,2.647-2.341,7.126-4.581,8.652c-0.814,0.509-2.137,0.611-3.054,0.611c-3.562,0-8.957,4.173-8.957,6.82
		c0,1.12,2.748,2.24,3.97,2.24c1.188,0,2.467-0.408,3.759-1.114c6.021-1.912,12.232-2.192,18.357-1.357
		c-0.189,0.286-0.387,0.58-0.613,0.902l-1.14,1.629c-1.303,2.28-7.901,11.647-12.136,19.383c-3.013,5.538-4.071,9.529-4.071,12.298
		c0,3.258,1.792,4.642,4.397,4.642c2.117,0,4.806-0.815,7.412-2.117c2.009-0.966,3.529-1.873,4.716-2.659
		c-0.097,0.469-0.157,0.924-0.157,1.356c0,2.117,1.467,3.91,3.91,3.91c4.967,0,12.297-5.864,15.718-9.366l0.408,0.244
		c-1.629,3.095-2.199,4.561-2.199,6.027c0,1.71,1.792,2.932,3.665,2.932c3.786,0,8.817-2.142,12.871-4.586
		c-0.44,0.842-0.739,1.521-0.739,1.817c0,1.059,0.326,2.687,1.629,2.687c0.406,0,0.732-0.163,1.058-0.57
		c2.933-4.154,14.823-18.325,19.384-18.325c0.408,0,0.732,0.244,0.732,0.651c0,0.896-1.058,1.466-1.058,2.525
		c0,0.652,0.733,3.746,1.71,3.746C398.658,239.118,400.287,235.698,400.287,233.825z"/>
	<path fill="#FFFFFF" d="M46.949,261.228c3.664-10.725,11.095-28.823,20.053-42.341c9.365-14.076,17.305-24.242,21.987-24.242
		c1.832,0,5.293-2.904,7.329-6.144c1.12-1.788,1.629-3.463,1.629-4.581c0-1.34-1.119-3.575-2.647-3.575
		c-0.814,0-2.443,1.117-3.156,1.788c-7.43,6.702-18.628,19.327-28.807,34.185c-9.568,13.964-17.712,29.828-21.478,39.436
		c-0.204,0.558-0.305,1.117-0.305,1.676c0,2.235,3.054,4.804,4.275,4.804C46.338,262.234,46.745,261.898,46.949,261.228z"/>
	<path fill="#FFFFFF" d="M115.921,233.215c-0.039-0.088-0.054-0.185-0.088-0.275c-0.731-0.492-1.292-1.155-1.682-1.914
		c-0.073,0.014-0.15,0.023-0.222,0.039c-5.904-8.156-15.879-11.842-23.209-12.624c-0.407,0-0.509-0.224-0.509-0.335
		c0-0.112,0.102-0.223,0.509-0.335c25.957-4.022,40.513-18.768,40.513-29.94c0-7.597-7.023-12.4-27.789-12.4
		c-23.921,0-49.674,4.804-71.866,15.864c-1.73,0.894-2.85,3.016-3.563,5.251c-0.305,0.894-0.305,1.676-0.305,3.351
		c0,0.894,0.407,1.229,1.119,1.229c1.119,0,3.563-1.117,6.413-2.234c0.411-0.163,0.787-0.323,1.14-0.482
		c11.188-1.954,22.767,1.11,33.005,5.879c0.588,0.274,0.431-0.558,0.342-0.838c-0.181-0.572-0.682-1.241-1.237-1.5
		c-8.696-4.05-18.313-6.855-27.865-6.523c1.064-1.242,1.743-2.581,3.572-4.244c3.97-3.575,33.897-13.406,58.124-13.406
		c6.922,0,22.089,0.335,22.089,10.166c0,9.72-21.478,23.014-36.543,25.36c-5.497,0.894-10.383,1.229-11.909,2.122
		c-1.323,0.782-3.054,2.346-3.054,4.916c0,0.67,0.611,1.229,3.054,1.229c10.892,0,23.005,3.016,29.825,10.725
		c-0.042,0.009-0.083,0.019-0.125,0.029c0.555,0.628,0.944,1.385,1.172,2.195c0.16-0.033,0.32-0.069,0.48-0.102
		c2.036,2.681,2.748,5.139,2.748,8.825c0,17.316-32.064,44.31-49.267,44.31c-1.298,0-2.517-0.123-3.751-0.362
		c-2.146-0.563-4.27-1.247-6.353-2.05c-1.452-0.598-3.051-1.307-4.886-2.134c-5.695-2.808-10.93-6.546-15.242-11.15
		c-3.939-4.205-7.473-9.406-9.307-14.895c-1.948-5.833-1.183-11.925,1.555-17.371c2.968-5.905,7.798-10.767,13.264-14.402
		c0.312-0.208-3.081-4.648-3.873-4.121c-10.571,7.03-19.382,19.746-14.609,32.793c2.315,6.329,6.472,12.109,10.93,17.104
		c4.5,5.043,9.624,9.537,15.362,13.124c4.077,2.548,5.953,3.902,8.865,4.956c1.603,0.65,3.05,1.034,4.534,1.251
		c0.284,0.062,0.565,0.124,0.87,0.187c0.173,0.036,0.651,0.037,1.232,0.02c0.8,0.046,1.632,0.065,2.531,0.065
		c19.951,0,55.477-23.418,55.477-48.666c0-3.575-0.916-6.591-1.934-8.602C115.611,233.263,115.765,233.246,115.921,233.215z"/>
	<path fill="#FFFFFF" d="M317.85,230.546C317.85,230.546,317.85,230.546,317.85,230.546
		C317.91,230.552,317.883,230.549,317.85,230.546z"/>
	<path fill="#FFFFFF" d="M444.44,219.67c-2.579-2.117-6.072-2.657-9.26-3.225c-3.678-0.656-7.401-0.986-11.135-1.06
		c-1.39-0.027-2.777-0.014-4.163,0.018c2.06-3.167,7.198-10.743,7.198-12.039c0-1.059-1.466-3.502-2.443-3.502
		c-0.815,0-1.385,0.325-1.955,1.059c-1.384,1.71-2.769,3.583-2.769,5.294c0,0.652,0.082,0.896,0.082,1.14
		c0,1.303-0.489,2.199-3.747,7.819c0,0-0.16,0.165-0.352,0.379c-4.172,0.219-8.338,0.592-12.509,0.885
		c-3.769,0.265-7.737,0.664-11.505,0.3c-3.732-0.36-7.444-2.835-7.41-6.929c0.005-0.646-3.269-0.156-3.278,0.878
		c-0.022,2.611,1.626,4.878,3.85,6.139c2.615,1.483,5.677,1.495,8.599,1.436c5.957-0.121,11.872-0.677,17.814-1.083
		c1.205-0.082,2.411-0.148,3.617-0.204c-2.945,5.027-5.837,10.238-9.822,16.93c-3.339,5.701-7.33,13.683-7.33,14.334
		c0,1.385,1.14,3.013,2.199,3.013c0.244,0,0.652-0.163,0.732-0.651c0.326-1.629,4.073-9.529,7.086-14.986
		c5.294-9.691,6.353-11.076,10.751-18.244c0.051,0.008,0.203-0.237,0.362-0.521c4.065-0.051,8.128,0.133,12.164,0.739
		c3.111,0.467,6.822,0.901,9.472,2.729c2.127,1.468,3.804,3.848,3.772,6.509c-0.028,2.287-1.639,6.105-4.344,6.163
		c-2.899,0.062-5.468-2.389-6.155-5.06c-0.214-0.832-3.498,0.021-3.278,0.878c1.456,5.667,8.445,6.949,12.982,4.181
		c2.177-1.328,3.713-3.601,4.012-6.148C448.007,224.031,446.581,221.428,444.44,219.67z"/>
</g>
<g>
	<path fill="#FFFFFF" d="M178.617,311.163l-7.397-4.513l-2.834,4.646l8.243,5.03l-0.852,1.396l-10.699-6.529l7.863-12.889
		l10.276,6.27l-0.852,1.396l-7.819-4.771l-2.485,4.073l7.396,4.513L178.617,311.163z"/>
	<path fill="#FFFFFF" d="M182.461,318.397c0.973,1.002,2.529,2.156,4.353,2.938c2.706,1.16,4.702,0.869,5.3-0.532
		c0.556-1.297-0.221-2.507-2.677-4.413c-3.001-2.236-4.564-4.296-3.726-6.252c0.926-2.162,4.259-2.635,8.239-0.929
		c2.097,0.899,3.476,1.88,4.238,2.621l-1.356,1.15c-0.563-0.534-1.755-1.531-3.609-2.327c-2.796-1.198-4.344-0.521-4.75,0.426
		c-0.557,1.297,0.416,2.47,2.925,4.423c3.077,2.391,4.354,4.28,3.48,6.318c-0.917,2.142-4.05,2.992-8.883,0.921
		c-1.975-0.847-3.966-2.163-4.848-3.126L182.461,318.397z"/>
	<path fill="#FFFFFF" d="M203.791,313.497c1.378,0.23,3.165,0.599,5.391,1.233c2.736,0.779,4.618,1.781,5.67,2.919
		c0.981,1.025,1.379,2.279,1.014,3.572c-0.374,1.314-1.24,2.185-2.537,2.632c-1.764,0.638-4.303,0.498-7.007-0.272
		c-0.826-0.235-1.585-0.474-2.189-0.763l-1.652,5.817l-2.768-0.788L203.791,313.497z M204.567,321.287
		c0.573,0.279,1.325,0.54,2.248,0.803c3.34,0.95,5.688,0.431,6.258-1.572c0.545-1.918-1.196-3.415-4.25-4.284
		c-1.21-0.345-2.151-0.543-2.653-0.592L204.567,321.287z"/>
	<path fill="#FFFFFF" d="M221.815,318.264c1.469,0.029,3.544,0.245,5.503,0.556c3.036,0.483,4.936,1.17,6.175,2.227
		c1.005,0.84,1.464,1.956,1.282,3.106c-0.312,1.968-2.348,2.982-4.751,3.145l-0.01,0.066c1.636,0.668,2.479,1.89,2.756,3.522
		c0.389,2.193,0.684,3.713,1.049,4.361l-2.939-0.467c-0.293-0.477-0.579-1.838-0.905-3.794c-0.327-2.161-1.38-3.121-3.948-3.598
		l-2.678-0.425l-1.024,6.458l-2.841-0.451L221.815,318.264z M223.579,325.504l2.907,0.462c3.036,0.482,5.142-0.34,5.412-2.043
		c0.305-1.924-1.619-3.091-4.619-3.59c-1.371-0.218-2.365-0.285-2.837-0.27L223.579,325.504z"/>
	<path fill="#FFFFFF" d="M251.674,329.212l-8.656-0.424l-0.265,5.437l9.647,0.472l-0.081,1.634l-12.519-0.614l0.738-15.078
		l12.024,0.588l-0.08,1.634l-9.152-0.448l-0.233,4.765l8.656,0.424L251.674,329.212z"/>
	<path fill="#FFFFFF" d="M258.158,333.912c1.316,0.47,3.222,0.82,5.204,0.717c2.938-0.153,4.601-1.292,4.522-2.814
		c-0.074-1.409-1.304-2.153-4.35-2.78c-3.678-0.684-5.991-1.842-6.102-3.967c-0.123-2.348,2.659-4.242,6.986-4.466
		c2.278-0.119,3.948,0.154,4.958,0.483l-0.71,1.629c-0.74-0.231-2.25-0.601-4.264-0.497c-3.039,0.157-4.13,1.448-4.077,2.477
		c0.074,1.409,1.465,2.032,4.578,2.678c3.815,0.789,5.795,1.92,5.909,4.134c0.121,2.326-2.316,4.471-7.566,4.744
		c-2.147,0.111-4.514-0.192-5.73-0.668L258.158,333.912z"/>
	<path fill="#FFFFFF" d="M276.846,332.602c1.356,0.329,3.288,0.477,5.248,0.167c2.906-0.46,4.44-1.769,4.202-3.273
		c-0.22-1.394-1.522-2.004-4.617-2.307c-3.729-0.294-6.148-1.204-6.48-3.305c-0.368-2.323,2.201-4.498,6.478-5.175
		c2.253-0.357,3.943-0.262,4.982-0.041l-0.536,1.695c-0.76-0.151-2.3-0.362-4.292-0.046c-3.004,0.475-3.954,1.873-3.794,2.891
		c0.221,1.394,1.669,1.868,4.832,2.184c3.877,0.383,5.964,1.301,6.31,3.49c0.363,2.301-1.836,4.69-7.029,5.512
		c-2.123,0.336-4.508,0.283-5.766-0.062L276.846,332.602z"/>
	<path fill="#FFFFFF" d="M312.64,318.714c1.493,4.977-2.182,8.958-7.63,10.594c-5.638,1.694-10.488-0.077-11.802-4.455
		c-1.38-4.591,1.933-8.86,7.636-10.573C306.672,312.53,311.351,314.423,312.64,318.714z M296.141,323.927
		c0.928,3.089,4.23,5.115,8.57,3.812c4.371-1.313,6.024-4.781,5.039-8.063c-0.864-2.875-3.984-5.212-8.576-3.833
		C296.61,317.213,295.186,320.751,296.141,323.927z"/>
	<path fill="#FFFFFF" d="M322.298,306.452c0.996-0.784,2.647-1.894,4.393-2.905c2.489-1.441,4.259-2.078,5.842-2.115
		c1.295-0.076,2.344,0.352,2.938,1.379c0.729,1.259,0.139,3.076-1.602,4.756l0.022,0.039c2.011-0.751,4.752-0.966,5.873,0.973
		c0.651,1.124,0.486,2.357-0.117,3.559c-0.862,1.613-2.812,3.259-5.96,5.081c-1.716,0.994-3.078,1.678-3.953,2.081L322.298,306.452z
		 M327.883,310.359l2.26-1.308c2.633-1.525,3.641-3.35,2.912-4.609c-0.887-1.53-2.951-1.137-5.47,0.32
		c-1.143,0.662-1.768,1.101-2.135,1.392L327.883,310.359z M331.506,316.618c0.52-0.223,1.247-0.617,2.134-1.131
		c2.576-1.491,4.581-3.505,3.482-5.405c-1.033-1.783-3.719-1.21-6.439,0.363l-2.06,1.193L331.506,316.618z"/>
	<path fill="#FFFFFF" d="M347.628,301.975l1.45,5.08l-2.217,1.988l-4.449-16.293l2.585-2.32l15.749,6.154l-2.289,2.054l-4.945-1.942
		L347.628,301.975z M352.049,295.959l-4.526-1.776c-1.027-0.402-1.873-0.848-2.703-1.277l-0.049,0.044
		c0.352,0.888,0.695,1.814,0.989,2.785l1.293,4.708L352.049,295.959z"/>
	<path fill="#FFFFFF" d="M352.901,282.585c0.601-1.341,1.61-3.167,2.663-4.848c1.63-2.608,3.006-4.089,4.464-4.814
		c1.168-0.597,2.374-0.584,3.361,0.033c1.691,1.057,1.829,3.328,1.041,5.603l0.057,0.035c1.254-1.244,2.709-1.544,4.32-1.161
		c2.172,0.499,3.687,0.822,4.427,0.738l-1.578,2.523c-0.555,0.083-1.92-0.184-3.847-0.65c-2.119-0.543-3.415,0.05-4.856,2.23
		l-1.439,2.299l5.548,3.466l-1.527,2.44L352.901,282.585z M360.261,283.791l1.56-2.495c1.63-2.607,1.697-4.867,0.234-5.781
		c-1.654-1.033-3.48,0.282-5.113,2.85c-0.736,1.177-1.186,2.066-1.355,2.506L360.261,283.791z"/>
</g>
</svg>
