<?xml version="1.0" encoding="utf-8"?>
<!-- Generator: Adobe Illustrator 17.0.0, SVG Export Plug-In . SVG Version: 6.00 Build 0)  -->
<!DOCTYPE svg PUBLIC "-//W3C//DTD SVG 1.1//EN" "http://www.w3.org/Graphics/SVG/1.1/DTD/svg11.dtd">
<svg version="1.1" xmlns="http://www.w3.org/2000/svg" xmlns:xlink="http://www.w3.org/1999/xlink" x="0px" y="0px" width="720px"
	 height="56.997px" viewBox="0 0 720 56.997" enable-background="new 0 0 720 56.997" xml:space="preserve">
<g id="Réteg_2">
	<rect y="0" fill="#F2F2F2" width="720" height="56.997"/>
</g>
<g id="Réteg_1">
	<defs>
		<rect id="SVGID_1_" y="0" width="720" height="56.997"/>
	</defs>
	<defs>
		<rect id="SVGID_2_" x="-0.909" y="-4.951" width="720" height="63.525"/>
	</defs>
	<clipPath id="SVGID_3_">
		<use xlink:href="#SVGID_1_"  overflow="visible"/>
	</clipPath>
	<clipPath id="SVGID_4_" clip-path="url(#SVGID_3_)">
		<use xlink:href="#SVGID_2_"  overflow="visible"/>
	</clipPath>
	<g clip-path="url(#SVGID_4_)">
		<path fill="#FFFFFF" stroke="#B3B3B3" stroke-miterlimit="10" d="M595.727-593.996"/>
		<path fill="#FFFFFF" stroke="#B3B3B3" stroke-miterlimit="10" d="M118.455-593.996"/>
	</g>
	<g clip-path="url(#SVGID_4_)">
		<g>
			<linearGradient id="SVGID_5_" gradientUnits="userSpaceOnUse" x1="669.5253" y1="-888.1356" x2="10.8032" y2="-1049.4552">
				<stop  offset="0" style="stop-color:#333333"/>
				<stop  offset="0.0319" style="stop-color:#2B2B2B"/>
				<stop  offset="0.1288" style="stop-color:#181818"/>
				<stop  offset="0.2418" style="stop-color:#0A0A0A"/>
				<stop  offset="0.3842" style="stop-color:#020202"/>
				<stop  offset="0.651" style="stop-color:#000000"/>
				<stop  offset="0.7444" style="stop-color:#050505"/>
				<stop  offset="0.8484" style="stop-color:#121212"/>
				<stop  offset="0.9572" style="stop-color:#282828"/>
				<stop  offset="1" style="stop-color:#333333"/>
			</linearGradient>
			<path fill="url(#SVGID_5_)" stroke="#FFFFFF" stroke-miterlimit="10" d="M-3.249-1120.938v312.409h0.691
				c3.895-23.215,24.073-40.909,48.396-40.909h621.827c24.322,0,44.5,17.694,48.396,40.909h0.691v-312.409H-3.249z"/>
			<path fill="#FFFFFF" stroke="#B3B3B3" stroke-miterlimit="10" d="M594.479-644.77c0-6.594-5.82-11.94-13-11.94H130.206
				c-7.18,0-13,5.346-13,11.94"/>
			<path fill="#FFFFFF" stroke="#B3B3B3" stroke-miterlimit="10" d="M602.433-640.47c0,6.594-5.82,11.94-13,11.94H125.661
				c-7.18,0-13-5.346-13-11.94v-4.3c0-6.594,5.82-11.94,13-11.94h463.773c7.18,0,13,5.346,13,11.94V-640.47z"/>
			<linearGradient id="SVGID_6_" gradientUnits="userSpaceOnUse" x1="118.4332" y1="-664.6044" x2="594.4787" y2="-664.6044">
				<stop  offset="0.1022" style="stop-color:#1A1A1A"/>
				<stop  offset="0.1606" style="stop-color:#141414"/>
				<stop  offset="0.3333" style="stop-color:#121212"/>
				<stop  offset="0.4699" style="stop-color:#161616"/>
				<stop  offset="0.6138" style="stop-color:#232323"/>
				<stop  offset="0.7312" style="stop-color:#333333"/>
				<stop  offset="0.7505" style="stop-color:#2D2D2D"/>
				<stop  offset="0.8442" style="stop-color:#141414"/>
				<stop  offset="0.93" style="stop-color:#050505"/>
				<stop  offset="1" style="stop-color:#000000"/>
			</linearGradient>
			<path fill="url(#SVGID_6_)" stroke="#B3B3B3" stroke-miterlimit="10" d="M594.479-639.336c0,8.504-6.393,15.398-14.279,15.398
				H132.713c-7.886,0-14.279-6.894-14.279-15.398l19-50.537c0-8.504,8.393-15.398,16.279-15.398h407.487
				c7.886,0,14.279,6.894,14.279,15.398L594.479-639.336z"/>
			<linearGradient id="SVGID_7_" gradientUnits="userSpaceOnUse" x1="125.4332" y1="-639.7482" x2="567.0959" y2="-639.7482">
				<stop  offset="0.1022" style="stop-color:#1A1A1A"/>
				<stop  offset="0.1606" style="stop-color:#141414"/>
				<stop  offset="0.3333" style="stop-color:#121212"/>
				<stop  offset="0.4423" style="stop-color:#1F1F1F"/>
				<stop  offset="0.6332" style="stop-color:#333333"/>
				<stop  offset="0.6595" style="stop-color:#2D2D2D"/>
				<stop  offset="0.7874" style="stop-color:#141414"/>
				<stop  offset="0.9044" style="stop-color:#050505"/>
				<stop  offset="1" style="stop-color:#000000"/>
			</linearGradient>
			<path fill="url(#SVGID_7_)" stroke="#B3B3B3" stroke-miterlimit="10" d="M613.388-627.21c0,14.106,0,13.061-13,13H118.433
				c-7.18,0-13,1.273-13-7.818v-25.136c0-12.362,5.82-18.182,13-18.182h481.955c7.18,0,13,5.82,13,13V-627.21z"/>
			<text transform="matrix(1.902 0 0 1 301.3443 -630.7979)" fill="#FFFFFF" font-family="'MyriadPro-Regular'" font-size="25.138">FREE</text>
		</g>
	</g>
	<g clip-path="url(#SVGID_4_)">
		<linearGradient id="SVGID_8_" gradientUnits="userSpaceOnUse" x1="672.7739" y1="-734.2719" x2="14.0518" y2="-895.5916">
			<stop  offset="0" style="stop-color:#333333"/>
			<stop  offset="0.0319" style="stop-color:#2B2B2B"/>
			<stop  offset="0.1288" style="stop-color:#181818"/>
			<stop  offset="0.2418" style="stop-color:#0A0A0A"/>
			<stop  offset="0.3842" style="stop-color:#020202"/>
			<stop  offset="0.651" style="stop-color:#000000"/>
			<stop  offset="0.7444" style="stop-color:#050505"/>
			<stop  offset="0.8484" style="stop-color:#121212"/>
			<stop  offset="0.9572" style="stop-color:#282828"/>
			<stop  offset="1" style="stop-color:#333333"/>
		</linearGradient>
		<path fill="url(#SVGID_8_)" stroke="#FFFFFF" stroke-miterlimit="10" d="M0-967.074v312.409h0.691
			c3.895-23.215,24.073-40.909,48.396-40.909h621.827c24.322,0,44.5,17.694,48.396,40.909H720v-312.409H0z"/>
		<path fill="#FFFFFF" stroke="#B3B3B3" stroke-miterlimit="10" d="M597.727-490.907c0-6.594-5.82-11.94-13-11.94H133.455
			c-7.18,0-13,5.346-13,11.94l68,598.173c0,1.541,0.329,3.01,0.908,4.362c1.881,21.275,77.044,38.388,169.501,38.388
			c90.505,0,164.441-16.398,169.286-37.046c1.005-1.695,1.577-3.638,1.577-5.704L597.727-490.907z"/>
		<path fill="#FFFFFF" stroke="#B3B3B3" stroke-miterlimit="10" d="M605.682-486.607c0,6.594-5.82,11.94-13,11.94H128.909
			c-7.18,0-13-5.346-13-11.94v-4.3c0-6.594,5.82-11.94,13-11.94h463.773c7.18,0,13,5.346,13,11.94V-486.607z"/>
		<linearGradient id="SVGID_9_" gradientUnits="userSpaceOnUse" x1="121.6818" y1="-510.7408" x2="597.7273" y2="-510.7408">
			<stop  offset="0.1022" style="stop-color:#1A1A1A"/>
			<stop  offset="0.1606" style="stop-color:#141414"/>
			<stop  offset="0.3333" style="stop-color:#121212"/>
			<stop  offset="0.4699" style="stop-color:#161616"/>
			<stop  offset="0.6138" style="stop-color:#232323"/>
			<stop  offset="0.7312" style="stop-color:#333333"/>
			<stop  offset="0.7505" style="stop-color:#2D2D2D"/>
			<stop  offset="0.8442" style="stop-color:#141414"/>
			<stop  offset="0.93" style="stop-color:#050505"/>
			<stop  offset="1" style="stop-color:#000000"/>
		</linearGradient>
		<path fill="url(#SVGID_9_)" stroke="#B3B3B3" stroke-miterlimit="10" d="M597.727-485.472c0,8.504-6.393,15.398-14.279,15.398
			H135.961c-7.886,0-14.279-6.894-14.279-15.398l19-50.537c0-8.504,8.393-15.398,16.279-15.398h407.487
			c7.886,0,14.279,6.894,14.279,15.398L597.727-485.472z"/>
		<linearGradient id="SVGID_10_" gradientUnits="userSpaceOnUse" x1="128.6818" y1="-485.8846" x2="570.3445" y2="-485.8846">
			<stop  offset="0.1022" style="stop-color:#1A1A1A"/>
			<stop  offset="0.1606" style="stop-color:#141414"/>
			<stop  offset="0.3333" style="stop-color:#121212"/>
			<stop  offset="0.4423" style="stop-color:#1F1F1F"/>
			<stop  offset="0.6332" style="stop-color:#333333"/>
			<stop  offset="0.6595" style="stop-color:#2D2D2D"/>
			<stop  offset="0.7874" style="stop-color:#141414"/>
			<stop  offset="0.9044" style="stop-color:#050505"/>
			<stop  offset="1" style="stop-color:#000000"/>
		</linearGradient>
		<path fill="url(#SVGID_10_)" stroke="#B3B3B3" stroke-miterlimit="10" d="M616.636-473.347c0,14.106,0,13.061-13,13H121.682
			c-7.18,0-13,1.273-13-7.818v-25.136c0-12.362,5.82-18.182,13-18.182h481.955c7.18,0,13,5.82,13,13V-473.347z"/>
		<text transform="matrix(1.902 0 0 1 304.5929 -476.9343)" fill="#FFFFFF" font-family="'MyriadPro-Regular'" font-size="25.138">FREE</text>
		<text transform="matrix(1 0 0 1 344.921 -419.7874)"><tspan x="0" y="0" fill="#FFFFFF" font-family="'MyriadPro-Semibold'" font-size="27.8121">9</tspan><tspan x="0" y="66.749" fill="#FFFFFF" font-family="'MyriadPro-Semibold'" font-size="27.8121">8</tspan><tspan x="0" y="133.499" fill="#FFFFFF" font-family="'MyriadPro-Semibold'" font-size="27.8121">7</tspan><tspan x="0" y="200.248" fill="#FFFFFF" font-family="'MyriadPro-Semibold'" font-size="27.8121">6</tspan><tspan x="0" y="266.997" fill="#FFFFFF" font-family="'MyriadPro-Semibold'" font-size="27.8121">5</tspan><tspan x="0" y="333.746" fill="#FFFFFF" font-family="'MyriadPro-Semibold'" font-size="27.8121">4</tspan><tspan x="0" y="400.495" fill="#FFFFFF" font-family="'MyriadPro-Semibold'" font-size="27.8121">3</tspan><tspan x="0" y="467.244" fill="#FFFFFF" font-family="'MyriadPro-Semibold'" font-size="27.8121">2</tspan><tspan x="0" y="533.994" fill="#FFFFFF" font-family="'MyriadPro-Semibold'" font-size="27.8121">1</tspan></text>
	</g>
	<g clip-path="url(#SVGID_4_)">
		<linearGradient id="SVGID_11_" gradientUnits="userSpaceOnUse" x1="671.8647" y1="-675.6978" x2="13.1427" y2="-837.0175">
			<stop  offset="0" style="stop-color:#333333"/>
			<stop  offset="0.0319" style="stop-color:#2B2B2B"/>
			<stop  offset="0.1288" style="stop-color:#181818"/>
			<stop  offset="0.2418" style="stop-color:#0A0A0A"/>
			<stop  offset="0.3842" style="stop-color:#020202"/>
			<stop  offset="0.651" style="stop-color:#000000"/>
			<stop  offset="0.7444" style="stop-color:#050505"/>
			<stop  offset="0.8484" style="stop-color:#121212"/>
			<stop  offset="0.9572" style="stop-color:#282828"/>
			<stop  offset="1" style="stop-color:#333333"/>
		</linearGradient>
		<path fill="url(#SVGID_11_)" stroke="#FFFFFF" stroke-miterlimit="10" d="M-0.909-908.5v312.409h0.691
			C3.677-619.306,23.855-637,48.178-637h621.827c24.322,0,44.5,17.694,48.396,40.909h0.691V-908.5H-0.909z"/>
		<path fill="#FFFFFF" stroke="#B3B3B3" stroke-miterlimit="10" d="M596.818-432.333c0-6.594-5.82-11.94-13-11.94H132.545
			c-7.18,0-13,5.346-13,11.94l68,598.173c0,1.541,0.329,3.01,0.908,4.362c1.881,21.275,77.044,38.388,169.501,38.388
			c90.505,0,164.441-16.398,169.287-37.046c1.005-1.695,1.577-3.638,1.577-5.704L596.818-432.333z"/>
		<path fill="#FFFFFF" stroke="#B3B3B3" stroke-miterlimit="10" d="M604.773-428.033c0,6.594-5.82,11.94-13,11.94H128
			c-7.18,0-13-5.346-13-11.94v-4.3c0-6.594,5.82-11.94,13-11.94h463.773c7.18,0,13,5.346,13,11.94V-428.033z"/>
		<linearGradient id="SVGID_12_" gradientUnits="userSpaceOnUse" x1="120.7727" y1="-452.1667" x2="596.8182" y2="-452.1667">
			<stop  offset="0.1022" style="stop-color:#1A1A1A"/>
			<stop  offset="0.1606" style="stop-color:#141414"/>
			<stop  offset="0.3333" style="stop-color:#121212"/>
			<stop  offset="0.4699" style="stop-color:#161616"/>
			<stop  offset="0.6138" style="stop-color:#232323"/>
			<stop  offset="0.7312" style="stop-color:#333333"/>
			<stop  offset="0.7505" style="stop-color:#2D2D2D"/>
			<stop  offset="0.8442" style="stop-color:#141414"/>
			<stop  offset="0.93" style="stop-color:#050505"/>
			<stop  offset="1" style="stop-color:#000000"/>
		</linearGradient>
		<path fill="url(#SVGID_12_)" stroke="#B3B3B3" stroke-miterlimit="10" d="M596.818-426.898c0,8.504-6.393,15.398-14.279,15.398
			H135.052c-7.886,0-14.279-6.894-14.279-15.398l19-50.537c0-8.504,8.393-15.398,16.279-15.398h407.487
			c7.886,0,14.279,6.894,14.279,15.398L596.818-426.898z"/>
		<linearGradient id="SVGID_13_" gradientUnits="userSpaceOnUse" x1="127.7727" y1="-427.3105" x2="569.4354" y2="-427.3105">
			<stop  offset="0.1022" style="stop-color:#1A1A1A"/>
			<stop  offset="0.1606" style="stop-color:#141414"/>
			<stop  offset="0.3333" style="stop-color:#121212"/>
			<stop  offset="0.4423" style="stop-color:#1F1F1F"/>
			<stop  offset="0.6332" style="stop-color:#333333"/>
			<stop  offset="0.6595" style="stop-color:#2D2D2D"/>
			<stop  offset="0.7874" style="stop-color:#141414"/>
			<stop  offset="0.9044" style="stop-color:#050505"/>
			<stop  offset="1" style="stop-color:#000000"/>
		</linearGradient>
		<path fill="url(#SVGID_13_)" stroke="#B3B3B3" stroke-miterlimit="10" d="M615.727-414.773c0,14.106,0,13.061-13,13H120.773
			c-7.18,0-13,1.273-13-7.818v-25.136c0-12.362,5.82-18.182,13-18.182h481.955c7.18,0,13,5.82,13,13V-414.773z"/>
		<text transform="matrix(1.902 0 0 1 303.6838 -418.3602)" fill="#FFFFFF" font-family="'MyriadPro-Regular'" font-size="25.138">FREE</text>
		<text transform="matrix(1 0 0 1 344.0119 -361.2133)"><tspan x="0" y="0" fill="#FFFFFF" font-family="'MyriadPro-Semibold'" font-size="27.8121">9</tspan><tspan x="0" y="66.749" fill="#FFFFFF" font-family="'MyriadPro-Semibold'" font-size="27.8121">8</tspan><tspan x="0" y="133.499" fill="#FFFFFF" font-family="'MyriadPro-Semibold'" font-size="27.8121">7</tspan><tspan x="0" y="200.248" fill="#FFFFFF" font-family="'MyriadPro-Semibold'" font-size="27.8121">6</tspan><tspan x="0" y="266.997" fill="#FFFFFF" font-family="'MyriadPro-Semibold'" font-size="27.8121">5</tspan><tspan x="0" y="333.746" fill="#FFFFFF" font-family="'MyriadPro-Semibold'" font-size="27.8121">4</tspan><tspan x="0" y="400.495" fill="#FFFFFF" font-family="'MyriadPro-Semibold'" font-size="27.8121">3</tspan><tspan x="0" y="467.244" fill="#FFFFFF" font-family="'MyriadPro-Semibold'" font-size="27.8121">2</tspan><tspan x="0" y="533.994" fill="#FFFFFF" font-family="'MyriadPro-Semibold'" font-size="27.8121">1</tspan></text>
	</g>
</g>
</svg>
