<?xml version="1.0" encoding="utf-8"?>
<!-- Generator: Adobe Illustrator 17.0.0, SVG Export Plug-In . SVG Version: 6.00 Build 0)  -->
<!DOCTYPE svg PUBLIC "-//W3C//DTD SVG 1.1//EN" "http://www.w3.org/Graphics/SVG/1.1/DTD/svg11.dtd">
<svg version="1.1" xmlns="http://www.w3.org/2000/svg" xmlns:xlink="http://www.w3.org/1999/xlink" x="0px" y="0px" width="720px"
	 height="312.409px" viewBox="0 0 720 312.409" enable-background="new 0 0 720 312.409" xml:space="preserve">
<g id="Réteg_2">
	<rect x="-0.031" y="0" fill="#F2F2F2" width="719.309" height="312.409"/>
</g>
<g id="Réteg_1">
	<g>
		<path d="M-0.031,0v312.409H0.66C4.555,289.194,24.733,271.5,49.055,271.5h621.827c24.322,0,44.5,17.694,48.396,40.909h0.691V0
			H-0.031z"/>
		<g>
			<path fill="#FFFFFF" d="M359.917,136.878c-0.288,0-0.936,0.36-1.512,1.152c-0.648,0.792-0.144,1.44-0.72,2.16
				c-2.952,3.601-7.489,5.905-11.665,5.905c-3.744,0-6.336-2.376-6.336-4.393c0-0.288,0.072-0.72,0.288-0.72
				c4.392,0,10.513-4.392,10.513-9.217c0-1.368-1.296-2.304-2.736-2.304c-5.04,0-17.065,10.873-17.137,10.873
				c-0.144,0-0.144-0.288-0.144-0.36c1.872-3.168,7.345-11.809,11.449-18.074c9.145,0,16.417-3.312,22.898-8.353
				c5.688-4.393,9.504-11.665,9.504-15.985c0-2.88-2.232-4.032-5.112-4.032c-5.329,0-12.457,4.392-18.361,11.161
				c-6.553,7.489-9.937,12.961-11.953,16.202c-5.617-0.36-7.849-1.296-9.937-2.232c-0.864-0.36-0.288-1.728-1.152-2.232
				c-0.72-0.432-1.512-0.72-2.16-0.72c-0.576,0-1.008,0.288-1.008,1.08c0,0.936,3.384,3.168,4.32,3.168
				c1.8,0.72,3.888,1.512,9.361,1.872c-3.168,5.112-6.697,10.081-9.865,15.697c-0.302,0.534-0.645,1.121-1.003,1.726
				c-0.001,0.001-0.001,0.001-0.002,0.002c-4.896,3.528-13.969,7.561-19.226,7.561c-1.872,0-3.024-0.936-3.024-2.808
				c0-5.4,9.289-13.105,13.033-13.105c1.512,0,2.088,0.504,2.088,1.224c0,1.44-2.592,3.384-2.592,3.744
				c0,0.072,0.072,0.288,0.576,0.288c2.736,0,6.553-4.393,6.553-6.409c0-0.288-0.216-0.432-0.648-0.432
				c-1.224,0-2.376,0.36-2.88,1.656c-0.432-0.648-1.872-1.44-3.672-1.44c-6.728,0-14.735,6.286-15.899,12.472
				c-3.337,2.228-8.588,4.665-11.028,4.665c-0.648,0-1.512-0.144-1.512-1.08c0-1.872,2.017-5.472,2.736-5.472
				c1.368,0,2.376-2.88,2.376-4.104c0-0.72-1.08-3.456-2.16-3.456c-0.504,0-0.936,0.648-1.44,1.44
				c-0.576,0.936-1.224,2.016-3.6,4.608c-3.24,3.528-9.865,8.137-12.457,8.137c-0.864,0-1.368-0.576-1.368-1.728
				c0-1.296,3.24-5.977,7.705-9.433c4.032-3.168,6.841-4.608,9.361-4.608c5.041,0,4.176,4.033,5.833,4.033
				c0.72,0,1.224-0.864,1.224-1.296c0-1.944-3.384-4.464-7.705-4.464c-3.528,0-7.849,1.44-11.809,4.249
				c-2.811,1.962-5.578,5.213-6.843,8.171c-3.344,2.492-8.66,5.006-11.949,5.006c-0.936,0-1.368-0.792-1.368-1.44
				c0-1.944,1.944-5.4,3.744-8.569c1.873-3.312,8.353-13.537,14.689-23.978c1.656-2.736,3.96-6.769,4.464-7.633
				c0.144-0.216,0.36-0.792,0.36-1.296c0-0.792-1.08-3.024-2.016-3.024c-0.864,0-1.584,0.504-2.088,1.152
				c-1.008,1.368-2.016,2.808-2.016,4.32c0,0.648,0.072,0.936,0.072,1.152c0,1.008-0.36,1.728-1.152,3.096
				c-0.648,1.152-12.961,21.026-15.193,24.626c-1.944,3.096-3.457,7.128-3.457,9.793c0,1.728,0.792,3.096,3.024,3.096
				c4.029,0,8.623-2.123,12.342-4.699c-0.113,0.482-0.175,0.948-0.175,1.387c0,1.872,1.296,3.457,3.456,3.457
				c4.393,0,10.873-5.185,13.897-8.281l0.36,0.216c-1.44,2.736-1.944,4.033-1.944,5.329c0,1.512,1.584,2.592,3.24,2.592
				c3.624,0,8.538-2.22,12.249-4.596c-0.001,0.044-0.011,0.088-0.011,0.132c0,3.096,2.664,4.968,5.76,4.968
				c5.38,0,13.693-3.919,18.851-7.127c-1.114,1.887-2.077,3.591-2.077,4.103c0,1.656,0.792,2.448,1.44,2.448
				c0.216,0,0.648-0.144,0.864-0.504c2.952-5.041,14.185-14.689,18.217-14.689c0.576,0,1.008,0.36,1.008,1.224
				c0,2.665-4.393,5.257-6.697,5.257c-0.792,0-1.512-0.504-2.376-0.504c-0.576,0-1.152,0.792-1.152,1.512
				c0,2.376,2.736,7.705,9.073,7.705c5.257,0,10.369-3.096,13.394-6.48c1.44-1.656,2.52-3.168,2.52-4.032
				C360.421,137.022,360.061,136.878,359.917,136.878z M353.364,106.203c5.544-6.48,11.665-9.937,15.337-9.937
				c1.729,0,2.952,0.864,2.952,2.809c0,3.528-3.097,9.937-7.921,13.753c-5.976,4.752-13.969,8.065-21.313,8.065
				C344.219,118.084,347.604,112.9,353.364,106.203z"/>
			<path fill="#FFFFFF" d="M499.52,132.629c0-2.088-0.937-3.24-2.736-3.24c-4.32,0-10.514,7.561-14.113,10.873
				c-0.072,0.072-0.072-0.144-0.072-0.36l4.536-6.769c0.145-0.216,0.36-0.792,0.36-1.296c0-0.864-0.937-2.664-2.16-2.664
				c-1.008,0-1.368,0.576-1.872,1.152c-1.152,1.368-2.232,2.808-2.232,4.681c0,0.36,0.072,0.792,0.072,1.08
				c0,0.936-0.288,1.368-0.864,2.232c-0.358,0.537-1.356,2.088-2.27,3.627c-3.332,2.244-8.658,4.726-11.12,4.726
				c-0.647,0-1.512-0.144-1.512-1.08c0-1.872,2.016-5.472,2.736-5.472c1.368,0,2.376-2.88,2.376-4.104c0-0.72-1.08-3.456-2.16-3.456
				c-0.504,0-0.937,0.648-1.44,1.44c-0.576,0.936-1.224,2.016-3.601,4.608c-3.24,3.528-9.864,8.137-12.457,8.137
				c-0.863,0-1.368-0.576-1.368-1.728c0-1.296,3.24-5.977,7.705-9.433c4.032-3.168,6.841-4.608,9.36-4.608
				c5.041,0,4.177,4.033,5.833,4.033c0.72,0,1.224-0.864,1.224-1.296c0-1.944-3.384-4.464-7.704-4.464
				c-3.528,0-7.849,1.44-11.81,4.249c-2.835,1.979-5.627,5.268-6.877,8.246c-1.266,0.94-3.052,2.094-5.218,3.13
				c-1.944,0.936-3.744,1.224-5.185,1.224s-2.017-1.008-2.017-2.232c0-2.448,0.864-5.185,3.385-9.649
				c4.464-7.92,8.425-13.969,10.945-18.146c0.052,0.002,0.72-1.368,0.72-1.368c0.226-0.339,0.437-0.652,0.644-0.96
				c5.084,0.976,10.063,2.752,14.727,4.924c0.52,0.242,0.381-0.493,0.303-0.741c-0.16-0.505-0.603-1.097-1.094-1.326
				c-4.083-1.901-8.395-3.497-12.806-4.53c1.204-1.784,2.21-3.305,3.555-5.647c0.145-0.216,0.36-0.792,0.36-1.296
				c0-0.216,0-0.432-0.145-0.648c-0.575-1.152-1.08-2.016-1.872-2.016c-1.512,0-3.96,3.96-3.96,5.4c0,0.576,0.072,0.864,0.072,1.08
				c0,0.816-0.137,1.561-0.637,2.589c-4.336-0.782-8.741-0.988-13.095-0.37c3.283-3.469,5.898-8.288,5.898-11.668
				c0-4.68-3.689-5.58-8.01-5.58c-8.189,0-28.259,7.38-28.259,17.1c0,5.67,10.8,9.72,14.76,18.27
				c0.273,0.619,0.509,1.295,0.54,1.979c-0.022,0-0.045,0,0,0c0.63,1.98,0.72,3.87,0.72,6.12c0,11.249-8.37,21.419-16.56,28.169
				c-8.369,6.93-20.249,11.159-29.789,11.159c-7.02,0-11.429-2.7-11.429-9.899c0-10.529,9.539-22.409,25.198-29.429
				c6.887-3.035,13.513-4.693,20.385-5.493c-0.336,3.518-1.801,6.032-3.139,9.542c-1.62,4.247-3.24,8.494-4.859,12.742
				c-0.513,1.345,4.072,3.325,4.546,2.082c1.679-4.402,3.357-8.803,5.036-13.205c1.534-4.021,3.134-8.051,3.152-12.42
				c0.003-0.75-1.509-1.061-2.869-0.94c0.002-0.005,0.002-0.01,0.004-0.015c-7.472,0.692-14.832,2.421-23.065,6.088
				c-16.56,7.38-27.359,19.89-27.359,31.139c0,9.54,6.57,14.039,16.109,14.039c9.9,0,22.859-4.229,32.129-11.699
				c9.45-7.649,18.359-19.349,18.359-32.129c0-1.979-0.09-3.51-0.54-5.579c-0.094-0.54-0.215-1.149-0.355-1.757
				c-0.005-0.043,0,0-0.004-0.043c-0.096-0.01-0.041-0.005,0,0c-2.7-10.349-14.04-13.86-14.04-19.71
				c0-7.739,16.649-14.039,21.6-14.039c4.77,0,5.489,1.17,5.489,3.33c0,2.34-2.069,6.3-4.05,7.649c-0.72,0.45-1.89,0.54-2.7,0.54
				c-3.149,0-7.919,3.689-7.919,6.029c0,0.99,2.43,1.98,3.51,1.98c1.051,0,2.181-0.361,3.323-0.985
				c5.323-1.691,10.815-1.938,16.23-1.199c-0.167,0.253-0.342,0.513-0.542,0.798l-1.008,1.44
				c-1.152,2.016-6.985,10.297-10.729,17.137c-2.664,4.896-3.6,8.425-3.6,10.873c0,2.88,1.584,4.104,3.888,4.104
				c1.872,0,4.249-0.72,6.553-1.872c1.776-0.854,3.12-1.656,4.169-2.351c-0.086,0.414-0.139,0.817-0.139,1.198
				c0,1.872,1.297,3.457,3.457,3.457c4.392,0,10.872-5.185,13.896-8.281l0.36,0.216c-1.44,2.736-1.944,4.033-1.944,5.329
				c0,1.512,1.584,2.592,3.24,2.592c3.347,0,7.795-1.893,11.379-4.055c-0.389,0.744-0.654,1.345-0.654,1.607
				c0,0.936,0.288,2.376,1.44,2.376c0.359,0,0.647-0.144,0.936-0.504c2.593-3.672,13.105-16.201,17.138-16.201
				c0.36,0,0.647,0.216,0.647,0.576c0,0.792-0.936,1.296-0.936,2.232c0,0.576,0.648,3.312,1.512,3.312
				C498.079,137.31,499.52,134.286,499.52,132.629z"/>
			<path fill="#FFFFFF" d="M187.128,156.857c3.24-9.482,9.81-25.483,17.729-37.434c8.28-12.445,15.299-21.433,19.439-21.433
				c1.62,0,4.68-2.568,6.479-5.432c0.99-1.581,1.44-3.062,1.44-4.05c0-1.185-0.99-3.161-2.34-3.161c-0.72,0-2.16,0.988-2.79,1.581
				c-6.569,5.926-16.469,17.087-25.469,30.224c-8.459,12.346-15.659,26.372-18.989,34.866c-0.18,0.494-0.27,0.988-0.27,1.481
				c0,1.976,2.7,4.247,3.78,4.247C186.588,157.746,186.948,157.45,187.128,156.857z"/>
			<path fill="#FFFFFF" d="M248.107,132.091c-0.034-0.078-0.048-0.163-0.078-0.243c-0.647-0.435-1.143-1.021-1.487-1.692
				c-0.064,0.013-0.133,0.021-0.197,0.034c-5.22-7.21-14.039-10.47-20.519-11.161c-0.36,0-0.45-0.198-0.45-0.296
				s0.09-0.197,0.45-0.296c22.949-3.556,35.818-16.593,35.818-26.47c0-6.716-6.209-10.963-24.569-10.963
				c-21.149,0-43.918,4.247-63.538,14.025c-1.53,0.79-2.52,2.667-3.15,4.642c-0.27,0.79-0.27,1.481-0.27,2.963
				c0,0.791,0.36,1.086,0.99,1.086c0.99,0,3.15-0.987,5.67-1.975c0.363-0.144,0.696-0.286,1.008-0.426
				c9.891-1.727,20.129,0.981,29.18,5.197c0.52,0.242,0.381-0.493,0.303-0.741c-0.16-0.505-0.603-1.097-1.094-1.326
				c-7.688-3.581-16.191-6.061-24.636-5.767c0.941-1.098,1.541-2.282,3.158-3.752c3.51-3.161,29.969-11.852,51.388-11.852
				c6.12,0,19.529,0.296,19.529,8.988c0,8.593-18.989,20.347-32.309,22.421c-4.86,0.79-9.18,1.086-10.529,1.876
				c-1.17,0.691-2.7,2.074-2.7,4.346c0,0.592,0.54,1.086,2.7,1.086c9.629,0,20.339,2.667,26.369,9.482
				c-0.037,0.008-0.073,0.017-0.11,0.025c0.491,0.555,0.835,1.225,1.036,1.941c0.142-0.029,0.283-0.061,0.424-0.09
				c1.8,2.371,2.43,4.543,2.43,7.803c0,15.31-28.349,39.175-43.558,39.175c-1.148,0-2.226-0.109-3.317-0.32
				c-1.897-0.498-3.775-1.103-5.617-1.812c-1.283-0.529-2.697-1.156-4.32-1.887c-5.035-2.483-9.664-5.788-13.476-9.858
				c-3.483-3.718-6.607-8.316-8.228-13.169c-1.722-5.157-1.046-10.543,1.375-15.358c2.624-5.22,6.895-9.519,11.727-12.733
				c0.276-0.184-2.724-4.109-3.424-3.644c-9.346,6.216-17.136,17.458-12.916,28.993c2.047,5.595,5.722,10.706,9.663,15.122
				c3.979,4.458,8.509,8.432,13.582,11.603c3.605,2.253,5.264,3.45,7.838,4.382c1.417,0.574,2.696,0.914,4.008,1.106
				c0.251,0.055,0.499,0.11,0.769,0.166c0.153,0.032,0.575,0.033,1.089,0.018c0.707,0.04,1.443,0.057,2.238,0.057
				c17.639,0,49.048-20.704,49.048-43.026c0-3.161-0.81-5.828-1.71-7.605C247.833,132.133,247.969,132.118,248.107,132.091z"/>
			<path fill="#FFFFFF" d="M426.636,129.73L426.636,129.73C426.689,129.736,426.665,129.733,426.636,129.73z"/>
			<path fill="#FFFFFF" d="M538.556,120.115c-2.28-1.871-5.368-2.349-8.187-2.851c-3.251-0.58-6.543-0.872-9.845-0.937
				c-1.229-0.024-2.455-0.012-3.681,0.016c1.821-2.8,6.364-9.498,6.364-10.644c0-0.936-1.296-3.096-2.16-3.096
				c-0.721,0-1.225,0.288-1.729,0.936c-1.224,1.512-2.448,3.168-2.448,4.68c0,0.576,0.072,0.792,0.072,1.008
				c0,1.152-0.433,1.944-3.313,6.913c0,0-0.141,0.146-0.311,0.335c-3.689,0.194-7.371,0.523-11.06,0.782
				c-3.332,0.234-6.84,0.587-10.172,0.265c-3.3-0.318-6.581-2.506-6.551-6.126c0.005-0.571-2.89-0.138-2.898,0.776
				c-0.019,2.308,1.438,4.313,3.404,5.428c2.312,1.311,5.019,1.322,7.603,1.269c5.267-0.107,10.497-0.599,15.749-0.958
				c1.065-0.073,2.132-0.131,3.198-0.18c-2.604,4.445-5.161,9.051-8.683,14.968c-2.952,5.041-6.48,12.097-6.48,12.673
				c0,1.224,1.008,2.664,1.944,2.664c0.216,0,0.576-0.144,0.647-0.576c0.288-1.44,3.601-8.425,6.265-13.25
				c4.681-8.568,5.617-9.792,9.505-16.129c0.045,0.007,0.179-0.209,0.32-0.46c3.594-0.045,7.186,0.118,10.755,0.653
				c2.75,0.412,6.031,0.796,8.374,2.413c1.881,1.298,3.363,3.402,3.334,5.755c-0.025,2.022-1.449,5.398-3.841,5.449
				c-2.563,0.055-4.835-2.112-5.441-4.474c-0.189-0.735-3.093,0.018-2.898,0.776c1.287,5.01,7.466,6.144,11.478,3.696
				c1.925-1.174,3.283-3.184,3.547-5.436C541.71,123.97,540.449,121.669,538.556,120.115z"/>
		</g>
		<g>
			<path fill="#FFFFFF" d="M303.538,201.006l-6.54-3.99l-2.506,4.108l7.288,4.447l-0.753,1.234l-9.459-5.772l6.952-11.396
				l9.085,5.543l-0.753,1.234l-6.913-4.218l-2.197,3.601l6.539,3.99L303.538,201.006z"/>
			<path fill="#FFFFFF" d="M306.936,207.401c0.86,0.886,2.236,1.906,3.848,2.597c2.392,1.025,4.157,0.768,4.686-0.47
				c0.491-1.146-0.196-2.217-2.367-3.902c-2.653-1.977-4.035-3.798-3.294-5.528c0.819-1.912,3.765-2.33,7.285-0.821
				c1.854,0.795,3.073,1.662,3.747,2.317l-1.199,1.017c-0.498-0.472-1.551-1.354-3.19-2.057c-2.472-1.059-3.84-0.461-4.199,0.376
				c-0.492,1.147,0.368,2.184,2.586,3.91c2.72,2.114,3.849,3.784,3.077,5.586c-0.811,1.894-3.581,2.646-7.854,0.814
				c-1.746-0.749-3.506-1.913-4.287-2.764L306.936,207.401z"/>
			<path fill="#FFFFFF" d="M325.794,203.069c1.218,0.204,2.798,0.53,4.767,1.09c2.419,0.689,4.083,1.574,5.013,2.581
				c0.867,0.906,1.219,2.015,0.896,3.158c-0.331,1.162-1.097,1.932-2.243,2.327c-1.56,0.564-3.805,0.44-6.195-0.241
				c-0.73-0.208-1.401-0.419-1.936-0.674l-1.461,5.143l-2.447-0.696L325.794,203.069z M326.481,209.957
				c0.507,0.247,1.172,0.478,1.987,0.71c2.953,0.84,5.029,0.381,5.533-1.39c0.482-1.695-1.057-3.019-3.757-3.788
				c-1.069-0.305-1.901-0.48-2.345-0.523L326.481,209.957z"/>
			<path fill="#FFFFFF" d="M341.73,207.284c1.298,0.026,3.133,0.217,4.865,0.492c2.684,0.427,4.364,1.034,5.459,1.969
				c0.889,0.743,1.294,1.729,1.133,2.746c-0.276,1.74-2.076,2.637-4.201,2.781l-0.009,0.058c1.446,0.59,2.192,1.671,2.437,3.114
				c0.344,1.938,0.604,3.283,0.928,3.855l-2.599-0.413c-0.259-0.422-0.512-1.625-0.8-3.354c-0.289-1.91-1.22-2.76-3.49-3.181
				l-2.368-0.376l-0.906,5.709l-2.512-0.399L341.73,207.284z M343.29,213.685l2.57,0.408c2.684,0.426,4.546-0.3,4.785-1.806
				c0.27-1.701-1.431-2.733-4.084-3.174c-1.212-0.193-2.091-0.252-2.508-0.238L343.29,213.685z"/>
			<path fill="#FFFFFF" d="M368.129,216.963l-7.653-0.375l-0.234,4.807l8.529,0.417l-0.071,1.444l-11.068-0.542l0.653-13.331
				l10.63,0.52l-0.07,1.444l-8.091-0.396l-0.206,4.213l7.653,0.375L368.129,216.963z"/>
			<path fill="#FFFFFF" d="M373.861,221.118c1.163,0.416,2.849,0.725,4.601,0.634c2.598-0.135,4.067-1.143,3.998-2.488
				c-0.065-1.246-1.153-1.903-3.846-2.458c-3.252-0.604-5.297-1.629-5.395-3.507c-0.108-2.076,2.351-3.75,6.177-3.949
				c2.014-0.105,3.49,0.136,4.384,0.427l-0.628,1.44c-0.654-0.204-1.989-0.531-3.77-0.439c-2.687,0.139-3.651,1.28-3.604,2.19
				c0.065,1.246,1.295,1.797,4.048,2.368c3.373,0.697,5.123,1.698,5.225,3.655c0.107,2.057-2.048,3.953-6.689,4.194
				c-1.898,0.098-3.991-0.17-5.066-0.59L373.861,221.118z"/>
			<path fill="#FFFFFF" d="M390.384,219.96c1.199,0.291,2.907,0.422,4.64,0.147c2.569-0.407,3.926-1.564,3.715-2.894
				c-0.194-1.232-1.346-1.771-4.082-2.04c-3.297-0.26-5.436-1.064-5.729-2.922c-0.325-2.054,1.946-3.977,5.728-4.576
				c1.992-0.316,3.486-0.231,4.404-0.036l-0.474,1.499c-0.672-0.134-2.033-0.32-3.795-0.041c-2.656,0.42-3.496,1.656-3.354,2.556
				c0.195,1.232,1.476,1.651,4.272,1.931c3.428,0.339,5.272,1.15,5.579,3.086c0.321,2.034-1.623,4.146-6.215,4.873
				c-1.877,0.297-3.985,0.25-5.098-0.055L390.384,219.96z"/>
			<path fill="#FFFFFF" d="M422.029,207.682c1.32,4.4-1.929,7.92-6.746,9.367c-4.984,1.498-9.272-0.068-10.435-3.938
				c-1.22-4.059,1.709-7.833,6.751-9.348C416.753,202.214,420.89,203.888,422.029,207.682z M407.442,212.29
				c0.82,2.731,3.74,4.522,7.577,3.37c3.864-1.161,5.326-4.227,4.455-7.129c-0.764-2.542-3.522-4.608-7.582-3.389
				C407.857,206.354,406.599,209.482,407.442,212.29z"/>
			<path fill="#FFFFFF" d="M430.568,196.84c0.881-0.693,2.34-1.675,3.884-2.568c2.2-1.274,3.766-1.837,5.165-1.87
				c1.145-0.067,2.072,0.312,2.598,1.219c0.645,1.113,0.123,2.72-1.416,4.205l0.02,0.035c1.778-0.664,4.201-0.854,5.192,0.86
				c0.575,0.994,0.43,2.083-0.104,3.147c-0.762,1.426-2.486,2.881-5.27,4.492c-1.518,0.878-2.722,1.483-3.495,1.84L430.568,196.84z
				 M435.506,200.295l1.998-1.156c2.328-1.348,3.219-2.961,2.574-4.075c-0.784-1.353-2.609-1.005-4.836,0.283
				c-1.011,0.585-1.563,0.974-1.888,1.23L435.506,200.295z M438.709,205.829c0.46-0.197,1.103-0.546,1.887-1
				c2.277-1.318,4.05-3.099,3.078-4.778c-0.913-1.576-3.288-1.07-5.692,0.321l-1.821,1.055L438.709,205.829z"/>
			<path fill="#FFFFFF" d="M452.963,192.882l1.282,4.491l-1.96,1.758l-3.934-14.405l2.285-2.051l13.924,5.44l-2.023,1.816
				l-4.372-1.717L452.963,192.882z M456.872,187.563l-4.002-1.57c-0.908-0.355-1.656-0.75-2.39-1.129l-0.043,0.039
				c0.312,0.785,0.614,1.604,0.874,2.462l1.144,4.163L456.872,187.563z"/>
			<path fill="#FFFFFF" d="M457.625,175.739c0.531-1.186,1.424-2.8,2.354-4.286c1.441-2.306,2.657-3.615,3.946-4.256
				c1.032-0.528,2.099-0.516,2.972,0.029c1.495,0.934,1.617,2.942,0.92,4.954l0.051,0.031c1.108-1.1,2.396-1.365,3.819-1.027
				c1.92,0.441,3.26,0.727,3.914,0.653l-1.396,2.23c-0.49,0.074-1.697-0.163-3.401-0.574c-1.873-0.48-3.02,0.044-4.293,1.972
				l-1.272,2.033l4.905,3.064l-1.35,2.157L457.625,175.739z M464.132,176.805l1.379-2.206c1.441-2.305,1.5-4.303,0.207-5.111
				c-1.462-0.914-3.077,0.25-4.521,2.52c-0.65,1.041-1.049,1.827-1.198,2.216L464.132,176.805z"/>
		</g>
	</g>
</g>
</svg>
